<mxfile host="app.diagrams.net" modified="2023-04-27T07:35:53.965Z" agent="Mozilla/5.0 (Windows NT 10.0; Win64; x64) AppleWebKit/537.36 (KHTML, like Gecko) Chrome/112.0.0.0 Safari/537.36 Edg/112.0.1722.58" version="21.2.1" etag="nLrpKoYUoG0kn_QfPggd" type="github">
  <diagram name="第 1 页" id="H6NleCy7MMbi2bYGVBl4">
    <mxGraphModel>
      <root>
        <mxCell id="0" />
        <mxCell id="1" parent="0" />
      </root>
    </mxGraphModel>
  </diagram>
</mxfile>
